<svg height="50px" width="50px" version="1.1" id="Layer_1" xmlns="http://www.w3.org/2000/svg" xmlns:xlink="http://www.w3.org/1999/xlink" viewBox="0 0 127.996 127.996" xml:space="preserve"><path style="fill:#ED5564;" d="M122.965 39.087c-3.223 -7.621 -7.835 -14.466 -13.71 -20.343 -5.879 -5.875 -12.726 -10.49 -20.343 -13.713C81.021 1.694 72.638 0 63.998 0c-8.639 0 -17.021 1.693 -24.911 5.031 -7.621 3.223 -14.466 7.838 -20.343 13.713 -5.875 5.877 -10.49 12.722 -13.713 20.343C1.694 46.977 0 55.36 0 63.998c0 8.64 1.693 17.023 5.031 24.913 3.223 7.617 7.838 14.464 13.713 20.339 5.877 5.879 12.722 10.492 20.343 13.714 7.891 3.336 16.273 5.031 24.911 5.031 8.64 0 17.023 -1.695 24.913 -5.031 7.617 -3.223 14.464 -7.835 20.343 -13.714 5.875 -5.875 10.488 -12.722 13.71 -20.339 3.336 -7.89 5.031 -16.273 5.031 -24.913 0 -8.638 -1.696 -17.021 -5.032 -24.911"/><path style="fill:#E6E9ED;" d="M0.025 65.795c0.219 8.004 1.898 15.773 5.006 23.116 3.223 7.617 7.838 14.464 13.713 20.339 5.877 5.879 12.722 10.492 20.343 13.714 7.891 3.336 16.273 5.031 24.911 5.031 8.64 0 17.023 -1.695 24.913 -5.031 7.617 -3.223 14.464 -7.835 20.343 -13.714 5.875 -5.875 10.488 -12.722 13.71 -20.339 3.11 -7.343 4.789 -15.113 5.008 -23.116z"/><path style="fill:#434A54;" d="M127.691 70.303a65 65 0 0 0 0.305 -6.304c0 -2.379 -0.129 -4.738 -0.383 -7.072 -3.18 0.49 -7.746 1.129 -13.499 1.764 -10.922 1.205 -28.476 2.643 -50.116 2.643 -21.638 0 -39.194 -1.438 -50.114 -2.643 -5.755 -0.635 -10.32 -1.273 -13.499 -1.764A65 65 0 0 0 0 63.998q0 3.176 0.305 6.304c10.383 1.563 33.257 4.359 63.693 4.359s53.31 -2.796 63.693 -4.359"/><path style="fill:#E6E9ED;" d="M77.334 66.664c0 7.365 -5.973 13.334 -13.335 13.334 -7.363 0 -13.334 -5.969 -13.334 -13.334 0 -7.363 5.971 -13.332 13.334 -13.332 7.363 0 13.335 5.969 13.335 13.332"/><path style="fill:#434A54;" d="M63.998 42.665c-13.234 0 -23.999 10.767 -23.999 23.999s10.765 23.997 23.999 23.997 23.999 -10.765 23.999 -23.997 -10.765 -23.999 -23.999 -23.999m0 34.669c-5.88 0 -10.666 -4.789 -10.666 -10.669 0 -5.881 4.785 -10.666 10.666 -10.666 5.883 0 10.664 4.785 10.664 10.666 0 5.88 -4.781 10.669 -10.664 10.669"/><path style="opacity:0.2;fill:#FFFFFF;enable-background:new    ;" d="M122.965 39.087c-3.223 -7.621 -7.835 -14.466 -13.71 -20.343 -5.879 -5.875 -12.726 -10.49 -20.343 -13.713C81.021 1.694 72.638 0 63.998 0c-0.892 0 -1.781 0.019 -2.666 0.055 7.697 0.313 15.165 1.982 22.244 4.976 7.625 3.223 14.468 7.838 20.343 13.713 5.875 5.877 10.492 12.722 13.714 20.343 3.34 7.891 5.027 16.273 5.027 24.912 0 8.64 -1.688 17.023 -5.027 24.913 -3.222 7.617 -7.839 14.464 -13.714 20.339 -5.875 5.879 -12.718 10.492 -20.343 13.714 -7.078 2.992 -14.546 4.664 -22.244 4.976 0.885 0.035 1.773 0.055 2.666 0.055 8.64 0 17.023 -1.695 24.913 -5.031 7.617 -3.223 14.464 -7.835 20.343 -13.714 5.875 -5.875 10.488 -12.722 13.71 -20.339 3.336 -7.89 5.031 -16.273 5.031 -24.913 0 -8.639 -1.695 -17.021 -5.031 -24.912"/><path style="opacity:0.1;enable-background:new    ;" d="M5.031 88.911c3.223 7.617 7.838 14.464 13.713 20.339 5.877 5.879 12.722 10.492 20.343 13.714 7.891 3.336 16.273 5.031 24.911 5.031 0.892 0 1.781 -0.019 2.666 -0.055 -7.697 -0.313 -15.168 -1.984 -22.245 -4.976 -7.621 -3.223 -14.464 -7.835 -20.341 -13.714 -5.877 -5.875 -10.49 -12.722 -13.714 -20.339 -3.338 -7.89 -5.029 -16.273 -5.029 -24.913 0 -8.639 1.691 -17.021 5.029 -24.912C13.588 31.466 18.201 24.62 24.078 18.746c5.877 -5.877 12.72 -10.492 20.341 -13.714C51.496 2.037 58.967 0.367 66.664 0.055c-0.885 -0.035 -1.774 -0.054 -2.666 -0.054 -8.639 0 -17.021 1.693 -24.911 5.031 -7.621 3.223 -14.466 7.838 -20.343 13.714 -5.875 5.875 -10.49 12.72 -13.713 20.341C1.694 46.977 0 55.36 0 63.998c0 8.64 1.694 17.023 5.031 24.913"/></svg>